<svg width="18" height="25" viewBox="0 0 18 25" fill="none" xmlns="http://www.w3.org/2000/svg">
<mask id="path-1-inside-1_31_214" fill="white">
<path fill-rule="evenodd" clip-rule="evenodd" d="M10.6995 23.3624C13.2429 20.4056 17.2784 15.0627 17.2784 10.9289C17.976 4.88314 13.4264 0 8.67475 0C3.92309 0 -0.626485 4.18555 0.0711164 10.9289C0.0711164 15.0627 4.10662 20.4056 6.65004 23.3624C7.73138 24.6195 9.61812 24.6195 10.6995 23.3624ZM8.67482 11.1615C10.3443 11.1615 11.6977 9.80808 11.6977 8.13858C11.6977 6.46908 10.3443 5.11568 8.67482 5.11568C7.00532 5.11568 5.65192 6.46908 5.65192 8.13858C5.65192 9.80808 7.00532 11.1615 8.67482 11.1615Z"/>
</mask>
<path d="M17.2784 10.9289L16.5333 10.843L16.5284 10.8858V10.9289H17.2784ZM10.6995 23.3624L11.268 23.8515L10.6995 23.3624ZM0.0711164 10.9289H0.821116V10.8902L0.817135 10.8518L0.0711164 10.9289ZM6.65004 23.3624L6.08145 23.8515H6.08145L6.65004 23.3624ZM16.5284 10.9289C16.5284 12.7855 15.6087 15.0087 14.2988 17.2025C13.0028 19.3729 11.3885 21.4113 10.1309 22.8733L11.268 23.8515C12.5539 22.3567 14.229 20.2452 15.5866 17.9715C16.9303 15.7213 18.0284 13.2062 18.0284 10.9289H16.5284ZM8.67475 0.75C12.9277 0.75 17.1855 5.19081 16.5333 10.843L18.0234 11.0149C18.7664 4.57547 13.9251 -0.75 8.67475 -0.75V0.75ZM0.817135 10.8518C0.162552 4.52421 4.39409 0.75 8.67475 0.75V-0.75C3.4521 -0.75 -1.41552 3.84689 -0.674902 11.0061L0.817135 10.8518ZM7.21863 22.8733C5.96103 21.4113 4.34669 19.3729 3.05073 17.2025C1.74077 15.0087 0.821116 12.7855 0.821116 10.9289H-0.678884C-0.678884 13.2062 0.419217 15.7213 1.76286 17.9715C3.1205 20.2452 4.79562 22.3567 6.08145 23.8515L7.21863 22.8733ZM10.1309 22.8733C9.34877 23.7826 8.00072 23.7826 7.21863 22.8733L6.08145 23.8515C7.46203 25.4565 9.88746 25.4565 11.268 23.8515L10.1309 22.8733ZM10.9477 8.13858C10.9477 9.39386 9.93011 10.4115 8.67482 10.4115V11.9115C10.7585 11.9115 12.4477 10.2223 12.4477 8.13858H10.9477ZM8.67482 5.86568C9.93011 5.86568 10.9477 6.88329 10.9477 8.13858H12.4477C12.4477 6.05486 10.7585 4.36568 8.67482 4.36568V5.86568ZM6.40192 8.13858C6.40192 6.88329 7.41954 5.86568 8.67482 5.86568V4.36568C6.59111 4.36568 4.90192 6.05486 4.90192 8.13858H6.40192ZM8.67482 10.4115C7.41954 10.4115 6.40192 9.39386 6.40192 8.13858H4.90192C4.90192 10.2223 6.59111 11.9115 8.67482 11.9115V10.4115Z" fill="#636D77" mask="url(#path-1-inside-1_31_214)"/>
</svg>
