<svg width="85" height="81" viewBox="0 0 85 80" fill="none" xmlns="http://www.w3.org/2000/svg" xmlns:xlink="http://www.w3.org/1999/xlink">
<g clip-path="url(#clip0_4_221)">
<path d="M36.1083 62.1902C50.5661 62.1902 62.2865 50.4699 62.2865 36.0121C62.2865 21.5543 50.5661 9.83389 36.1083 9.83389C21.6505 9.83389 9.93018 21.5543 9.93018 36.0121C9.93018 50.4699 21.6505 62.1902 36.1083 62.1902Z" fill="#FF9561"/>
<g style="mix-blend-mode:multiply" opacity="0.73">
<rect width="72.0574" height="72.0574" fill="url(#pattern0_4_221)"/>
</g>
<path d="M70.8656 47.5027C70.6996 47.5027 70.5346 47.5071 70.3703 47.5141C69.8342 44.9376 68.4228 42.6261 66.3758 40.9722C64.3288 39.3183 61.7724 38.424 59.1408 38.4412C56.5092 38.4584 53.9647 39.3859 51.9395 41.0664C49.9142 42.7469 48.5331 45.0766 48.0308 47.6598C46.4766 47.3983 44.8851 47.4621 43.3569 47.8472C41.8287 48.2322 40.397 48.9302 39.1523 49.8969C37.9076 50.8636 36.8771 52.078 36.1258 53.4634C35.3745 54.8488 34.9189 56.375 34.7876 57.9455C34.6564 59.516 34.8524 61.0967 35.3633 62.5876C35.8743 64.0784 36.689 65.4471 37.7559 66.6069C38.8229 67.7668 40.1189 68.6927 41.562 69.3261C43.0051 69.9594 44.5639 70.2865 46.1399 70.2865H70.8656C72.3631 70.2889 73.8463 69.9959 75.2305 69.4244C76.6146 68.853 77.8725 68.0142 78.9322 66.9561C79.9919 65.8981 80.8326 64.6415 81.4062 63.2582C81.9798 61.8749 82.275 60.3921 82.275 58.8946C82.275 57.3972 81.9798 55.9144 81.4062 54.5311C80.8326 53.1478 79.9919 51.8912 78.9322 50.8331C77.8725 49.7751 76.6146 48.9363 75.2305 48.3648C73.8463 47.7934 72.3631 47.5004 70.8656 47.5027Z" fill="#D2D2F7"/>
<path d="M83.1422 30.4253C83.3982 36.1206 79.5609 40.6 75.1433 40.6C70.7256 40.6 67.1443 36.0446 67.1443 30.4253C67.1443 22.9383 75.1433 15.7712 75.1433 15.7712C75.1433 15.7712 82.8171 23.1914 83.1422 30.4253Z" fill="#8DD0E0"/>
<g style="mix-blend-mode:multiply" opacity="0.7">
<rect x="24.8287" y="28.6071" width="67.1996" height="51.5467" fill="url(#pattern1_4_221)"/>
</g>
<g style="mix-blend-mode:multiply" opacity="0.76">
<rect x="57.2141" y="5.93732" width="35.8938" height="44.5299" fill="url(#pattern2_4_221)"/>
</g>
</g>
</svg>
