<svg width="64" height="46" viewBox="0 0 64 46" fill="none" xmlns="http://www.w3.org/2000/svg">
<path d="M37.9969 9.67481C37.8222 9.67481 37.6486 9.67945 37.4758 9.68694C36.9118 6.93616 35.427 4.4683 33.2735 2.70252C31.12 0.936741 28.4306 -0.0180698 25.662 0.000259051C22.8935 0.0185879 20.2166 1.00893 18.086 2.80307C15.9553 4.59721 14.5024 7.08452 13.9739 9.84254C12.3388 9.56333 10.6645 9.63144 9.05681 10.0425C7.44907 10.4537 5.94287 11.1988 4.63343 12.2309C3.324 13.263 2.23982 14.5596 1.44945 16.0388C0.659077 17.5179 0.179701 19.1473 0.0416308 20.8241C-0.0964389 22.5008 0.109799 24.1884 0.64731 25.7801C1.18482 27.3719 2.04191 28.8331 3.16439 30.0715C4.28686 31.3098 5.6503 32.2983 7.16851 32.9745C8.68672 33.6507 10.3267 33.9999 11.9846 34H37.9969C39.5723 34.0024 41.1327 33.6897 42.5889 33.0795C44.045 32.4694 45.3684 31.5739 46.4832 30.4443C47.5981 29.3146 48.4825 27.973 49.086 26.4961C49.6894 25.0193 50 23.4362 50 21.8374C50 20.2386 49.6894 18.6555 49.086 17.1786C48.4825 15.7018 47.5981 14.3602 46.4832 13.2305C45.3684 12.1009 44.045 11.2054 42.5889 10.5953C41.1327 9.98513 39.5723 9.67235 37.9969 9.67481Z" fill="#E3E3FC"/>
<path d="M47.1612 14.9361C46.9929 14.9361 46.8256 14.9406 46.659 14.9479C46.1155 12.2667 44.6845 9.86119 42.609 8.14006C40.5335 6.41892 37.9415 5.48825 35.2733 5.50611C32.6051 5.52398 30.0252 6.48928 27.9718 8.23806C25.9184 9.98685 24.518 12.4113 24.0087 15.0996C22.4329 14.8274 20.8193 14.8938 19.2698 15.2945C17.7203 15.6952 16.2687 16.4216 15.0067 17.4276C13.7447 18.4336 12.6998 19.6974 11.9381 21.1391C11.1764 22.5809 10.7144 24.1691 10.5813 25.8035C10.4482 27.4378 10.647 29.0828 11.165 30.6343C11.6831 32.1857 12.5091 33.61 13.5909 34.8171C14.6727 36.0241 15.9867 36.9877 17.4499 37.6468C18.9131 38.3059 20.4936 38.6462 22.0915 38.6463H47.1612C48.6795 38.6487 50.1834 38.3438 51.5868 37.7491C52.9902 37.1544 54.2656 36.2816 55.3401 35.1805C56.4145 34.0794 57.2669 32.7717 57.8485 31.3322C58.4301 29.8926 58.7294 28.3496 58.7294 26.7912C58.7294 25.2328 58.4301 23.6897 57.8485 22.2502C57.2669 20.8107 56.4145 19.503 55.3401 18.4019C54.2656 17.3008 52.9902 16.428 51.5868 15.8333C50.1834 15.2386 48.6795 14.9337 47.1612 14.9361Z" fill="#D2D2F7"/>
<path d="M55.5046 28.6678C55.381 28.6678 55.2581 28.6711 55.1358 28.6764C54.7366 26.7271 53.6857 24.9782 52.1616 23.7269C50.6374 22.4756 48.7339 21.799 46.7744 21.812C44.815 21.8249 42.9204 22.5267 41.4124 23.7982C39.9044 25.0696 38.876 26.8322 38.502 28.7867C37.3448 28.5888 36.1597 28.6371 35.0218 28.9284C33.8839 29.2198 32.8179 29.7478 31.8911 30.4792C30.9644 31.2106 30.197 32.1295 29.6376 33.1776C29.0782 34.2258 28.7389 35.3805 28.6412 36.5688C28.5435 37.757 28.6895 38.9529 29.0699 40.0809C29.4503 41.2089 30.0569 42.2444 30.8514 43.1219C31.6458 43.9995 32.6108 44.7 33.6854 45.1792C34.7599 45.6584 35.9206 45.9058 37.0941 45.9059H55.5046C56.6196 45.9076 57.724 45.686 58.7547 45.2536C59.7853 44.8212 60.7219 44.1866 61.511 43.3861C62.3 42.5856 62.926 41.6349 63.3531 40.5883C63.7802 39.5417 64 38.4198 64 37.2869C64 36.1539 63.7802 35.032 63.3531 33.9854C62.926 32.9389 62.3 31.9881 61.511 31.1876C60.7219 30.3871 59.7853 29.7525 58.7547 29.3201C57.724 28.8877 56.6196 28.6661 55.5046 28.6678Z" fill="#AAAAEF"/>
</svg>
