<svg width="64" height="50" viewBox="0 0 64 50" fill="none" xmlns="http://www.w3.org/2000/svg">
<path d="M48.636 18.2863C48.4124 18.2863 48.1902 18.2923 47.969 18.302C47.2471 14.741 45.3466 11.5463 42.5901 9.26037C39.8336 6.97449 36.3911 5.73845 32.8474 5.76218C29.3037 5.7859 25.8772 7.06794 23.15 9.39054C20.4228 11.7131 18.563 14.9331 17.8865 18.5034C15.7937 18.142 13.6506 18.2302 11.5927 18.7624C9.53481 19.2946 7.60687 20.2592 5.9308 21.5953C4.25472 22.9314 2.86698 24.61 1.8553 26.5247C0.843618 28.4395 0.230017 30.5489 0.0532874 32.7195C-0.123442 34.8902 0.140543 37.0748 0.828557 39.1354C1.51657 41.196 2.61365 43.0876 4.05041 44.6907C5.48718 46.2938 7.23239 47.5735 9.17569 48.4489C11.119 49.3242 13.2181 49.7763 15.3403 49.7764H48.636C50.6525 49.7795 52.6498 49.3746 54.5138 48.5848C56.3777 47.795 58.0716 46.6357 59.4985 45.1733C60.9255 43.7109 62.0576 41.9742 62.83 40.0623C63.6024 38.1504 64 36.101 64 34.0313C64 31.9616 63.6024 29.9122 62.83 28.0004C62.0576 26.0885 60.9255 24.3517 59.4985 22.8893C58.0716 21.427 56.3777 20.2677 54.5138 19.4779C52.6498 18.688 50.6525 18.2831 48.636 18.2863Z" fill="#D2D2F7"/>
<path fill-rule="evenodd" clip-rule="evenodd" d="M25 23.3574C24.6681 23.3811 24.333 23.3932 23.9951 23.3932C16.3272 23.3932 10.1112 17.1772 10.1112 9.50933C10.1112 5.82974 11.5426 2.48448 13.879 0C6.68021 0.514893 1 6.51814 1 13.8481C1 21.5159 7.21602 27.7319 14.8839 27.7319C18.8721 27.7319 22.4676 26.0503 25 23.3574Z" fill="#8DD0E0"/>
</svg>
