<svg width="64" height="51" viewBox="0 0 64 51" fill="none" xmlns="http://www.w3.org/2000/svg">
<circle cx="13.037" cy="13.037" r="13.037" fill="#FFCA00"/>
<path d="M48.636 19.2863C48.4124 19.2863 48.1902 19.2923 47.969 19.302C47.2471 15.741 45.3466 12.5463 42.5901 10.2604C39.8336 7.97449 36.3911 6.73845 32.8474 6.76218C29.3037 6.7859 25.8772 8.06794 23.15 10.3905C20.4228 12.7131 18.563 15.9331 17.8865 19.5034C15.7937 19.142 13.6506 19.2302 11.5927 19.7624C9.53481 20.2946 7.60687 21.2592 5.9308 22.5953C4.25472 23.9314 2.86698 25.61 1.8553 27.5247C0.843618 29.4395 0.230017 31.5489 0.0532874 33.7195C-0.123442 35.8902 0.140543 38.0748 0.828557 40.1354C1.51657 42.196 2.61365 44.0876 4.05041 45.6907C5.48718 47.2938 7.23239 48.5735 9.17569 49.4489C11.119 50.3242 13.2181 50.7763 15.3403 50.7764H48.636C50.6525 50.7795 52.6498 50.3746 54.5138 49.5848C56.3777 48.795 58.0716 47.6357 59.4985 46.1733C60.9255 44.7109 62.0576 42.9742 62.83 41.0623C63.6024 39.1504 64 37.101 64 35.0313C64 32.9616 63.6024 30.9122 62.83 29.0004C62.0576 27.0885 60.9255 25.3517 59.4985 23.8893C58.0716 22.427 56.3777 21.2677 54.5138 20.4779C52.6498 19.688 50.6525 19.2831 48.636 19.2863Z" fill="#D2D2F7"/>
</svg>
