<svg width="64" height="77" viewBox="0 0 64 77" fill="none" xmlns="http://www.w3.org/2000/svg">
<circle cx="13.0097" cy="13.0097" r="13.0097" fill="#FFCA00"/>
<path d="M49.3547 13.9345C49.1416 13.9345 48.9298 13.9402 48.7189 13.9494C48.0308 10.555 46.2191 7.50967 43.5916 5.33071C40.964 3.15175 37.6826 1.97352 34.3046 1.99614C30.9267 2.01876 27.6605 3.24083 25.0609 5.45479C22.4612 7.66875 20.6884 10.7381 20.0436 14.1414C18.0487 13.7969 16.0058 13.881 14.0442 14.3883C12.0825 14.8956 10.2448 15.8151 8.64709 17.0887C7.04942 18.3623 5.72658 19.9623 4.76223 21.7875C3.79787 23.6128 3.21297 25.6235 3.04451 27.6926C2.87605 29.7617 3.12769 31.8442 3.78352 33.8084C4.43935 35.7725 5.48511 37.5757 6.85467 39.1038C8.22423 40.6319 9.8878 41.8518 11.7402 42.6862C13.5926 43.5206 15.5935 43.9515 17.6165 43.9516H49.3547C51.2769 43.9546 53.1808 43.5687 54.9575 42.8158C56.7342 42.0629 58.3489 40.9578 59.7091 39.5639C61.0694 38.1699 62.1485 36.5143 62.8848 34.6919C63.621 32.8695 64 30.9159 64 28.943C64 26.9701 63.621 25.0166 62.8848 23.1942C62.1485 21.3717 61.0694 19.7162 59.7091 18.3222C58.3489 16.9282 56.7342 15.8232 54.9575 15.0703C53.1808 14.3174 51.2769 13.9314 49.3547 13.9345Z" fill="#D2D2F7"/>
<path d="M48.297 58.8705C48.4861 63.0471 45.6514 66.3321 42.388 66.3321C39.1246 66.3321 36.479 62.9914 36.479 58.8705C36.479 53.3798 42.388 48.1238 42.388 48.1238C42.388 48.1238 48.0568 53.5654 48.297 58.8705Z" fill="#8DD0E0"/>
<path d="M29.3738 47.9454C29.5629 52.1221 26.7283 55.4072 23.4648 55.4072C20.2014 55.4072 17.5558 52.0664 17.5558 47.9454C17.5558 42.4547 23.4648 37.1987 23.4648 37.1987C23.4648 37.1987 29.1337 42.6403 29.3738 47.9454Z" fill="#8DD0E0"/>
<path d="M34.1073 71.0689C34.2397 73.8533 32.2554 76.0433 29.971 76.0433C27.6865 76.0433 25.8346 73.8162 25.8346 71.0689C25.8346 67.4085 29.971 63.9045 29.971 63.9045C29.971 63.9045 33.9392 67.5322 34.1073 71.0689Z" fill="#8DD0E0"/>
</svg>
