<svg width="64" height="45" viewBox="0 0 64 45" fill="none" xmlns="http://www.w3.org/2000/svg">
<path d="M48.636 12.5245C48.4124 12.5245 48.1902 12.5305 47.969 12.5402C47.2471 8.9792 45.3466 5.78443 42.5901 3.49854C39.8336 1.21266 36.3911 -0.0233923 32.8474 0.000335354C29.3037 0.024063 25.8772 1.30611 23.15 3.62871C20.4228 5.95131 18.563 9.17126 17.8865 12.7416C15.7937 12.3802 13.6506 12.4684 11.5927 13.0006C9.53481 13.5328 7.60687 14.4974 5.9308 15.8335C4.25472 17.1697 2.86698 18.8482 1.8553 20.7629C0.843618 22.6777 0.230017 24.7871 0.0532874 26.9578C-0.123442 29.1284 0.140543 31.3131 0.828557 33.3736C1.51657 35.4342 2.61365 37.3258 4.05041 38.9289C5.48718 40.5321 7.23239 41.8118 9.17569 42.6871C11.119 43.5625 13.2181 44.0145 15.3403 44.0146H48.636C50.6525 44.0178 52.6498 43.6129 54.5138 42.8231C56.3777 42.0332 58.0716 40.874 59.4985 39.4116C60.9255 37.9492 62.0576 36.2124 62.83 34.3005C63.6024 32.3887 64 30.3393 64 28.2696C64 26.1999 63.6024 24.1505 62.83 22.2386C62.0576 20.3267 60.9255 18.5899 59.4985 17.1276C58.0716 15.6652 56.3777 14.5059 54.5138 13.7161C52.6498 12.9262 50.6525 12.5213 48.636 12.5245Z" fill="#D2D2F7"/>
</svg>
