<svg width="64" height="75" viewBox="0 0 64 75" fill="none" xmlns="http://www.w3.org/2000/svg">
<path d="M48.636 12.5244C48.4124 12.5244 48.1902 12.5304 47.969 12.5401C47.2471 8.97912 45.3466 5.78438 42.5901 3.49851C39.8336 1.21265 36.3911 -0.0233921 32.8474 0.000335351C29.3037 0.0240628 25.8772 1.3061 23.15 3.62868C20.4228 5.95126 18.563 9.17118 17.8865 12.7415C15.7937 12.3801 13.6506 12.4683 11.5927 13.0005C9.53481 13.5327 7.60687 14.4973 5.9308 15.8334C4.25472 17.1695 2.86698 18.848 1.8553 20.7628C0.843618 22.6775 0.230017 24.7869 0.0532874 26.9575C-0.123442 29.1282 0.140543 31.3128 0.828557 33.3734C1.51657 35.4339 2.61365 37.3255 4.05041 38.9286C5.48718 40.5317 7.23239 41.8114 9.17569 42.6868C11.119 43.5622 13.2181 44.0142 15.3403 44.0143H48.636C50.6525 44.0174 52.6498 43.6125 54.5138 42.8227C56.3777 42.0329 58.0716 40.8736 59.4985 39.4113C60.9255 37.9489 62.0576 36.2121 62.83 34.3003C63.6024 32.3884 64 30.339 64 28.2693C64 26.1996 63.6024 24.1502 62.83 22.2384C62.0576 20.3266 60.9255 18.5898 59.4985 17.1274C58.0716 15.665 56.3777 14.5058 54.5138 13.716C52.6498 12.9261 50.6525 12.5212 48.636 12.5244Z" fill="#D2D2F7"/>
<path d="M47.3984 56.994C47.5879 61.1794 44.7472 64.4713 41.477 64.4713C38.2067 64.4713 35.5555 61.1236 35.5555 56.994C35.5555 51.4919 41.477 46.2249 41.477 46.2249C41.477 46.2249 47.1577 51.6779 47.3984 56.994Z" fill="#8DD0E0"/>
<path d="M28.4355 46.0461C28.625 50.2315 25.7844 53.5234 22.5141 53.5234C19.2438 53.5234 16.5927 50.1757 16.5927 46.0461C16.5927 40.5438 22.5141 35.2767 22.5141 35.2767C22.5141 35.2767 28.1948 40.7298 28.4355 46.0461Z" fill="#8DD0E0"/>
<path d="M33.1789 69.218C33.3116 72.0083 31.3231 74.2029 29.0339 74.2029C26.7446 74.2029 24.8888 71.9711 24.8888 69.218C24.8888 65.5499 29.0339 62.0386 29.0339 62.0386C29.0339 62.0386 33.0104 65.6739 33.1789 69.218Z" fill="#8DD0E0"/>
</svg>
