<svg width="64" height="65" viewBox="0 0 64 65" fill="none" xmlns="http://www.w3.org/2000/svg">
<path d="M48.636 12.5244C48.4124 12.5244 48.1902 12.5304 47.969 12.5401C47.2471 8.97915 45.3466 5.7844 42.5901 3.49852C39.8336 1.21265 36.3911 -0.0233921 32.8474 0.000335352C29.3037 0.0240628 25.8772 1.3061 23.15 3.62869C20.4228 5.95128 18.563 9.17121 17.8865 12.7416C15.7937 12.3801 13.6506 12.4683 11.5927 13.0005C9.53481 13.5327 7.60687 14.4973 5.9308 15.8334C4.25472 17.1696 2.86698 18.8481 1.8553 20.7628C0.843618 22.6776 0.230017 24.787 0.0532874 26.9576C-0.123442 29.1283 0.140543 31.3129 0.828557 33.3735C1.51657 35.434 2.61365 37.3256 4.05041 38.9287C5.48718 40.5318 7.23239 41.8115 9.17569 42.6869C11.119 43.5623 13.2181 44.0143 15.3403 44.0144H48.636C50.6525 44.0176 52.6498 43.6127 54.5138 42.8228C56.3777 42.033 58.0716 40.8737 59.4985 39.4114C60.9255 37.949 62.0576 36.2122 62.83 34.3004C63.6024 32.3885 64 30.3391 64 28.2694C64 26.1997 63.6024 24.1503 62.83 22.2385C62.0576 20.3266 60.9255 18.5898 59.4985 17.1275C58.0716 15.6651 56.3777 14.5058 54.5138 13.716C52.6498 12.9262 50.6525 12.5213 48.636 12.5244Z" fill="#D2D2F7"/>
<circle cx="40.889" cy="41.755" r="5.33333" fill="#E3E3FC"/>
<circle cx="19.9998" cy="47.4216" r="5.33333" fill="#E3E3FC"/>
<circle cx="37.3333" cy="59.0883" r="5.33333" fill="#E3E3FC"/>
</svg>
