<svg width="62" height="64" viewBox="0 0 62 64" fill="none" xmlns="http://www.w3.org/2000/svg">
<path d="M46.4583 11.9637C46.2447 11.9637 46.0324 11.9694 45.8211 11.9787C45.1316 8.57714 43.3161 5.52542 40.6831 3.34189C38.05 1.15836 34.7617 -0.0223448 31.3766 0.000320338C27.9916 0.0229855 24.7186 1.24762 22.1135 3.46623C19.5084 5.68483 17.7319 8.76061 17.0856 12.1711C15.0865 11.8259 13.0394 11.9101 11.0736 12.4185C9.10787 12.9268 7.26626 13.8483 5.66524 15.1246C4.06421 16.4009 2.7386 18.0042 1.77222 19.8333C0.805844 21.6623 0.219717 23.6773 0.0509014 25.7507C-0.117915 27.8242 0.13425 29.911 0.791458 31.8793C1.44867 33.8476 2.49662 35.6545 3.86905 37.1859C5.24149 38.7172 6.90855 39.9396 8.76484 40.7758C10.6211 41.612 12.6263 42.0437 14.6535 42.0438H46.4583C48.3845 42.0469 50.2924 41.6601 52.0728 40.9056C53.8533 40.1511 55.4713 39.0438 56.8344 37.6469C58.1975 36.25 59.2789 34.591 60.0167 32.7647C60.7546 30.9384 61.1343 28.9808 61.1343 27.0038C61.1343 25.0267 60.7546 23.0691 60.0167 21.2428C59.2789 19.4166 58.1975 17.7575 56.8344 16.3606C55.4713 14.9637 53.8533 13.8564 52.0728 13.1019C50.2924 12.3474 48.3845 11.9607 46.4583 11.9637Z" fill="#D2D2F7"/>
<path d="M28.0119 30.5672H19.4866L10.5075 47.7323H18.1254L14.4716 64L31.5224 41.2628H21.9463L28.0119 30.5672Z" fill="#AAAAEF"/>
</svg>
